<svg xmlns="http://www.w3.org/2000/svg" width="27.188" height="23.229" viewBox="0 0 27.188 23.229"><defs><style>.a{fill:#38b22e;}</style></defs><g transform="translate(0 -20.528)"><path class="a" d="M26,20.751c-1.209-.651-3.209.256-4,1-1.814,1.768-3.279,4.139-5,6-1.907,2.047-3.046,4-5,6a18,18,0,0,0-3,4,63.364,63.364,0,0,0-5-5c-1.349-1.023-4.047-1.465-4,1,.093,3.21,2.907,6.814,5,9,.884.93,1.651.953,3,1a7.559,7.559,0,0,0,5-2c1.721-1.861,2.419-4.093,4-6,2.047-2.512,5-5.442,7-8C25.256,26.17,29.117,22.426,26,20.751Zm-24,13c-.047,0,.093-.046,0,0-.186-.046-.814-.907-1-1H1C1.14,32.658,1.675,33.565,2,33.751Z" transform="translate(0)"/></g></svg>