<svg xmlns="http://www.w3.org/2000/svg" width="48" height="48" viewBox="0 0 48 48"><defs><style>.a{fill:#f0e3d0;}.b,.d{fill:none;}.b{stroke:#f0e3d0;}.c{stroke:none;}</style></defs><g transform="translate(-235 -5033)"><g transform="translate(253.811 5047.5)"><path class="a" d="M32.266.5l-3-1c-2.867,0-4,2.058-4,5v3h-3c-.222,0,0-.222,0,0v3c0,.222-.222,1,0,1h3v8c0,.222-.222,0,0,0h4c.222,0,0,.222,0,0v-8h3c.222,0,0-.778,0-1v-3c0-.106.075.075,0,0s.106,0,0,0h-3v-2c0-.91-.185-2,1-2h2c.222,0,0,.222,0,0V.5C32.266.279,32.488.5,32.266.5Z" transform="translate(-22.077)"/></g><g class="b" transform="translate(235 5033)"><circle class="c" cx="24" cy="24" r="24"/><circle class="d" cx="24" cy="24" r="23.5"/></g></g></svg>