<svg xmlns="http://www.w3.org/2000/svg" width="48" height="48" viewBox="0 0 48 48"><defs><style>.a{fill:#f0e3d0;}.b,.d{fill:none;}.b{stroke:#f0e3d0;}.c{stroke:none;}</style></defs><g transform="translate(-358 -5033)"><g transform="translate(368.853 5048.783)"><path class="a" d="M22.811,9.115h-3v2h-2v3h2v2h3v-2h2v-3h-2Z" transform="translate(2.336 -3.898)"/><path class="a" d="M8.147,21.717a9.113,9.113,0,0,0,9-9c0-.557-.919-.571-1-1h-8v3h5a5.045,5.045,0,0,1-5,4c-2.9,0-5-3.031-5-6a4.794,4.794,0,0,1,5-5c1.659,0,3.373.4,4,1l2-2a8.743,8.743,0,0,0-6-2,7.667,7.667,0,0,0-8,8C.147,17.415,3.448,21.717,8.147,21.717Z" transform="translate(0 -4.5)"/></g><g class="b" transform="translate(358 5033)"><circle class="c" cx="24" cy="24" r="24"/><circle class="d" cx="24" cy="24" r="23.5"/></g></g></svg>