<svg xmlns="http://www.w3.org/2000/svg" width="48" height="48" viewBox="0 0 48 48"><defs><style>.a{fill:#f0e3d0;}.b,.d{fill:none;}.b{stroke:#f0e3d0;}.c{stroke:none;}</style></defs><g transform="translate(-420 -5033)"><g transform="translate(434.5 5047.5)"><path class="a" d="M12.5-.5h-7a6.241,6.241,0,0,0-6,6v7a6.241,6.241,0,0,0,6,6h7a6.241,6.241,0,0,0,6-6v-7A6.241,6.241,0,0,0,12.5-.5Zm4,13a4.021,4.021,0,0,1-4,4h-7a4.021,4.021,0,0,1-4-4v-7a4.021,4.021,0,0,1,4-4h7a4.021,4.021,0,0,1,4,4Z"/><g transform="translate(4.545 4.545)"><path class="a" d="M132.955,127.955a5.361,5.361,0,0,0-5,5c0,2.51,2.49,4,5,4a3.67,3.67,0,0,0,4-4C136.955,130.445,135.465,127.955,132.955,127.955Zm0,7c-1.566,0-3-.434-3-2a3.124,3.124,0,0,1,3-3c1.566,0,2,1.433,2,3S134.521,134.955,132.955,134.955Z" transform="translate(-128 -128)"/></g><g transform="translate(13.371 3.599)"><circle class="a" cx="0.5" cy="0.5" r="0.5" transform="translate(0.129 -0.098)"/></g></g><g class="b" transform="translate(420 5033)"><circle class="c" cx="24" cy="24" r="24"/><circle class="d" cx="24" cy="24" r="23.5"/></g></g></svg>