<svg xmlns="http://www.w3.org/2000/svg" width="35.056" height="35.604" viewBox="0 0 35.056 35.604">
  <defs>
    <style>
      .cls-1 {
        fill: #fe8369;
      }
    </style>
  </defs>
  <g id="support" transform="translate(-0.572)">
    <g id="Group_315" data-name="Group 315" transform="translate(0.572 5.478)">
      <g id="Group_314" data-name="Group 314" transform="translate(0 0)">
        <path id="Path_1325" data-name="Path 1325" class="cls-1" d="M29.062,104.78l-1.1-3.834a4.385,4.385,0,0,0-3.287-2.739l-3.834-.548v-.548c.664-.385,1.183-.486,1.643-1.1h1.643c.944,0,1.643-1.247,1.643-2.191V87.252a7.863,7.863,0,0,0-7.669-7.669c-4.09,0-7.121,3.579-7.121,7.669v3.834a2.091,2.091,0,0,0,1.643,2.191,5.7,5.7,0,0,0,2.739,3.834v.548l-3.834.548a4.385,4.385,0,0,0-3.287,2.739v.548L6.057,99.85a.982.982,0,0,1,0-1.1L8.8,96.564,4.413,92.182,1.674,94.92a3.971,3.971,0,0,0,0,5.478l7.669,7.669c.754.754,1.672,1.643,2.739,1.643s2-.906,2.739-1.643l3.287-2.191-1.1-1.1ZM24.68,93.825c0,.315-.233,1.1-.548,1.1h-.548c.165-.377-.081-1.23,0-1.643.244-.051.886.122,1.1,0Zm-.548-1.643V89.991a1.369,1.369,0,0,1,0,2.191Zm-11.5,0a1.369,1.369,0,0,1,0-2.191Zm0-3.834V88.9c-.2.053-.371.444-.548.548V87.252a5.863,5.863,0,0,1,6.025-6.025c3.461,0,6.573,2.565,6.573,6.025v2.191c-.177-.1-.345-.5-.548-.548v-.548h-.548a7.229,7.229,0,0,1-4.93-1.643l-.548-1.1-.548,1.1a5.9,5.9,0,0,1-4.382,1.643Zm1.1,3.834V89.443a7.135,7.135,0,0,0,4.382-2.191,7.132,7.132,0,0,0,4.382,2.191v2.739a6.355,6.355,0,0,1-.548,2.739H18.107v1.1h3.287a5.26,5.26,0,0,1-3.287,1.1C15.59,97.111,13.725,94.7,13.725,92.182Zm6.025,5.478h0L18.107,99.3l-1.643-1.643h0a5.626,5.626,0,0,0,1.643.548A5.626,5.626,0,0,0,19.75,97.659ZM9.343,101.493A3.221,3.221,0,0,1,11.534,99.3l4.382-.548,2.191,2.191,2.739-2.191,3.834.548a3.22,3.22,0,0,1,2.191,2.191l.548,2.191h-11.5l-2.191-2.191-2.739,2.191c-.215.216-.332.216-.548,0l-1.1-1.1Zm-4.93-7.669,2.739,2.739-1.1.548L3.866,94.373Zm9.86,13.694a3.554,3.554,0,0,1-2.191,1.1c-.762,0-1.1-.557-1.643-1.1L2.77,99.85a3.548,3.548,0,0,1-1.1-2.191c0-.762.557-1.1,1.1-1.643v-.548l2.739,2.739h0a1.45,1.45,0,0,0,0,2.191l3.834,4.382a2.932,2.932,0,0,0,1.643.548,1.531,1.531,0,0,0,1.1-.548h0l2.739,2.191Zm1.1-1.1-2.739-2.739,1.1-.548,2.739,2.739Z" transform="translate(-0.579 -79.583)"/>
      </g>
    </g>
    <g id="Group_317" data-name="Group 317" transform="translate(24.673)">
      <g id="Group_316" data-name="Group 316" transform="translate(0)">
        <path id="Path_1326" data-name="Path 1326" class="cls-1" d="M345.138,0H337.47a1.6,1.6,0,0,0-1.643,1.643V6.025c0,.944.7,2.191,1.643,2.191h1.643l-1.1,3.287L343.5,8.216h1.643c.944,0,1.643-1.247,1.643-2.191V1.643A1.6,1.6,0,0,0,345.138,0Zm.548,6.025c0,.314-.233,1.1-.548,1.1H343.5l-3.834,2.191.548-2.191H337.47c-.314,0-.548-.781-.548-1.1V1.643a.533.533,0,0,1,.548-.548h7.669a.533.533,0,0,1,.548.548Z" transform="translate(-335.827)"/>
      </g>
    </g>
    <g id="Group_319" data-name="Group 319" transform="translate(26.864 2.191)">
      <g id="Group_318" data-name="Group 318" transform="translate(0 0)">
        <rect id="Rectangle_163" data-name="Rectangle 163" class="cls-1" width="7" height="1" transform="translate(-0.292 -0.191)"/>
      </g>
    </g>
    <g id="Group_321" data-name="Group 321" transform="translate(26.864 4.382)">
      <g id="Group_320" data-name="Group 320" transform="translate(0 0)">
        <rect id="Rectangle_164" data-name="Rectangle 164" class="cls-1" width="5" height="1" transform="translate(-0.292 -0.382)"/>
      </g>
    </g>
    <g id="Group_323" data-name="Group 323" transform="translate(32.342 4.382)">
      <g id="Group_322" data-name="Group 322" transform="translate(0 0)">
        <rect id="Rectangle_165" data-name="Rectangle 165" class="cls-1" width="1" height="1" transform="translate(0.23 -0.382)"/>
      </g>
    </g>
    <g id="Group_325" data-name="Group 325" transform="translate(0.572 1.643)">
      <g id="Group_324" data-name="Group 324" transform="translate(0 0)">
        <path id="Path_1327" data-name="Path 1327" class="cls-1" d="M18.1,23.875a15.956,15.956,0,0,0-15.337,12.6l-1.1-2.191-1.1.548,2.191,3.834L6.05,36.473l-.548-1.1-1.643,1.1A14.857,14.857,0,0,1,18.1,24.97a14.659,14.659,0,0,1,4.382.548l.548-1.1A17.168,17.168,0,0,0,18.1,23.875Z" transform="translate(-0.572 -23.875)"/>
      </g>
    </g>
    <g id="Group_327" data-name="Group 327" transform="translate(29.603 10.407)">
      <g id="Group_326" data-name="Group 326" transform="translate(0 0)">
        <path id="Path_1328" data-name="Path 1328" class="cls-1" d="M414.875,150.8l-3.287-2.191-2.191,3.834,1.1.548,1.1-1.643a12.246,12.246,0,0,1,.548,4.382,14.77,14.77,0,0,1-3.287,9.312l1.1,1.1a16.735,16.735,0,0,0,3.287-10.407,14.812,14.812,0,0,0-.548-4.93l1.643,1.1Z" transform="translate(-408.85 -148.613)"/>
      </g>
    </g>
  </g>
</svg>
