<svg xmlns="http://www.w3.org/2000/svg" width="34.704" height="34.779" viewBox="0 0 34.704 34.779">
  <defs>
    <style>
      .cls-1 {
        fill: #fe8369;
      }
    </style>
  </defs>
  <path id="target-2" class="cls-1" d="M46.142,16.449a.908.908,0,0,0-.527-.527l-3.69-.527L41.4,11.7a.911.911,0,0,0-.527-.527c-.2-.058-.379-.148-.527,0l-4.218,4.218a15.985,15.985,0,0,0-21.088,3.69c-5.1,6.514-4.795,16.293,1.054,22.142a16.29,16.29,0,0,0,21.615,1.054,16.113,16.113,0,0,0,4.218-21.088l3.69-4.218C45.762,16.828,46.2,16.65,46.142,16.449Zm-3.163,13.18A14.5,14.5,0,0,1,31.908,43.863a15.47,15.47,0,0,1-17.4-6.854,15.382,15.382,0,0,1,2.636-18.452,14.521,14.521,0,0,1,17.925-2.109l-1.582,1.582c-.016.018.014-.02,0,0a12.4,12.4,0,0,0-15.816,3.69c-3.655,5.029-3.339,12.471,1.054,16.87a12.589,12.589,0,0,0,16.343,1.054,12.4,12.4,0,0,0,3.69-15.816c.021-.015.508.018.527,0l1.582-2.109A16.305,16.305,0,0,1,42.979,29.629Zm-5.272-5.8a11.4,11.4,0,0,1-3.163,14.761,11.009,11.009,0,0,1-14.761-1.054,11.7,11.7,0,0,1-1.054-15.289,11.265,11.265,0,0,1,14.761-2.636l.527,2.636-.527.527A8.771,8.771,0,0,0,21.364,35.428c3.382,3.382,9.163,3.8,12.653.527a8.628,8.628,0,0,0,.527-12.125l.527-1.054Zm-7.381,5.8c0,1.128-1.018,1.821-2.109,2.109a2.205,2.205,0,0,1-2.636-1.054,2.742,2.742,0,0,1,.527-3.163c.814-.782,1.675-.591,2.636,0L27.163,29.1c-.224.224-.224.3,0,.527a.911.911,0,0,0,1.054,0L29.8,28.048A3.767,3.767,0,0,1,30.326,29.629ZM29.8,26.466a3.439,3.439,0,0,0-4.745.527,3.4,3.4,0,0,0,0,4.745c1.338,1.339,3.3,1.755,4.745.527s2.164-3.211,1.054-4.745l2.636-3.163A7.654,7.654,0,0,1,22.418,34.9a7.539,7.539,0,0,1-.527-10.544,8.2,8.2,0,0,1,11.071-.527Zm10.544-5.8-2.109,2.109h0l-3.163-1.054-.527-3.163,5.8-5.8.527,3.163c.049.216.311-.049.527,0l2.636,1.054Z" transform="translate(-11.443 -11.097)"/>
</svg>
