<svg id="time" xmlns="http://www.w3.org/2000/svg" width="34.883" height="34.883" viewBox="0 0 34.883 34.883">
  <defs>
    <style>
      .cls-1 {
        fill: #fe8369;
      }
    </style>
  </defs>
  <path id="Path_1315" data-name="Path 1315" class="cls-1" d="M17.442,0A17.442,17.442,0,1,0,34.883,17.442,17.489,17.489,0,0,0,17.442,0Zm0,33.758A16.316,16.316,0,1,1,33.758,17.442,16.387,16.387,0,0,1,17.442,33.758Z"/>
  <path id="Path_1316" data-name="Path 1316" class="cls-1" d="M25.755,21.289V15.1a.563.563,0,0,0-1.125,0v6.189a2.4,2.4,0,0,0-1.688,1.688H19A.563.563,0,0,0,19,24.1h3.938a2.287,2.287,0,0,0,2.251,1.688,2.205,2.205,0,0,0,2.251-2.251A2.287,2.287,0,0,0,25.755,21.289Zm-.563,3.376a1.125,1.125,0,1,1,1.125-1.125A1.1,1.1,0,0,1,25.192,24.665Z" transform="translate(-7.751 -6.098)"/>
  <path id="Path_1317" data-name="Path 1317" class="cls-1" d="M29.662,8.474a.551.551,0,0,0,.563-.563V7.349a.563.563,0,1,0-1.125,0v.563A.551.551,0,0,0,29.662,8.474Z" transform="translate(-12.22 -2.848)"/>
  <path id="Path_1318" data-name="Path 1318" class="cls-1" d="M29.662,49.451a.551.551,0,0,0-.563.563v.563c0,.321.242,1.125.563,1.125s.563-.8.563-1.125v-.563A.551.551,0,0,0,29.662,49.451Z" transform="translate(-12.22 -20.757)"/>
  <path id="Path_1319" data-name="Path 1319" class="cls-1" d="M51.572,29.1h-.563a.563.563,0,0,0,0,1.125h.563a.563.563,0,0,0,0-1.125Z" transform="translate(-21.19 -12.224)"/>
  <path id="Path_1320" data-name="Path 1320" class="cls-1" d="M7.908,29.1H7.345a.563.563,0,1,0,0,1.125h.563a.563.563,0,0,0,0-1.125Z" transform="translate(-2.844 -12.224)"/>
  <path id="Path_1321" data-name="Path 1321" class="cls-1" d="M44.506,13.454v.563c-.227.227-.227.336,0,.563.113.113-.149.563,0,.563s.45-.45.563-.563l.563-.563c.227-.227.227-.336,0-.563A1.017,1.017,0,0,0,44.506,13.454Z" transform="translate(-18.625 -5.577)"/>
  <path id="Path_1322" data-name="Path 1322" class="cls-1" d="M14.013,43.51l-.563.563a1.015,1.015,0,0,0,0,1.125c.113.113.414,0,.563,0s.45.113.563,0v-.563a1.015,1.015,0,0,0,0-1.125C14.349,43.283,14.239,43.283,14.013,43.51Z" transform="translate(-5.573 -18.191)"/>
  <path id="Path_1323" data-name="Path 1323" class="cls-1" d="M45.068,43.509c-.227-.227-.336-.227-.563,0a1.015,1.015,0,0,0,0,1.125V45.2c.113.113.414,0,.563,0s.45.113.563,0a1.015,1.015,0,0,0,0-1.125Z" transform="translate(-18.625 -18.191)"/>
  <path id="Path_1324" data-name="Path 1324" class="cls-1" d="M14.575,13.454a1.015,1.015,0,0,0-1.125,0c-.227.227-.227.336,0,.563l.563.563c.113.113.414.563.563.563s-.113-.45,0-.563c.227-.227.227-.336,0-.563Z" transform="translate(-5.573 -5.577)"/>
</svg>
