<svg xmlns="http://www.w3.org/2000/svg" width="48" height="48" viewBox="0 0 48 48"><defs><style>.a{fill:#f0e3d0;}.b,.d{fill:none;}.b{stroke:#f0e3d0;}.c{stroke:none;}</style></defs><g transform="translate(-297 -5033)"><g transform="translate(309 5047)"><g transform="translate(2.195 1.783)"><path class="a" d="M19.805,80.686c-.73.32-1.189-.1-2,0,.835-.5.7-1.056,1-2a5.386,5.386,0,0,1-2,1,3.966,3.966,0,0,0-3-1,3.982,3.982,0,0,0-4,4,5.04,5.04,0,0,0,0,1,10.569,10.569,0,0,1-8-4c-.347.6-1,1.257-1,2a3.658,3.658,0,0,0,2,3c-.647-.012-1.462-.7-2-1h0a3.9,3.9,0,0,0,3,4c-.328.09-.629,1-1,1-.258,0-.756-.946-1-1a4.564,4.564,0,0,0,4,3,8.376,8.376,0,0,1-5,2,8.238,8.238,0,0,1-1,0,10.918,10.918,0,0,0,6,2c7.408,0,12-6.681,12-12,0-.178.009.171,0,0A7.616,7.616,0,0,0,19.805,80.686Z" transform="translate(0 -78.469)"/></g></g><g class="b" transform="translate(297 5033)"><circle class="c" cx="24" cy="24" r="24"/><circle class="d" cx="24" cy="24" r="23.5"/></g></g></svg>